<?xml version="1.0" encoding="UTF-8"?>
<svg id="Layer_2" data-name="Layer 2" xmlns="http://www.w3.org/2000/svg" viewBox="0 0 84.92 73.21">
  <defs>
    <style>
      .cls-1 {
        fill: #f7fbff;
        stroke-width: 0px;
      }
    </style>
  </defs>
  <g id="Layer_1-2" data-name="Layer 1">
    <path class="cls-1" d="m74.83,5.08s-2.29,14.81-4.45,28.74c-1.61-.3-2.98-.35-3.74-.35-.4,0-.62.02-.62.02-3.33.05-13.85,1.14-13.95,12.13-.04,4.53-.04,8.58-.02,11.59-5.66-3.89-13.57-9.32-16.87-11.54-5.41-3.65-.37-7.18-.37-7.18l18.81-18.5s3.23-3.06,2.38-3.88c-.7-.69-4.25,1.84-4.25,1.84,0,0-15.34,10.36-25.28,17.01-6.9,4.62-11.64,2.71-11.64,2.71l-11.42-3.77S-.12,32.37,0,30.25c.12-2.11,3.41-3.29,3.41-3.29L68.12.37c7.06-2,6.71,4.71,6.71,4.71Z"/>
    <circle class="cls-1" cx="70.44" cy="67.69" r="5.52"/>
    <path class="cls-1" d="m82.81,70.04h-24.74c-1.36,0-2.39-1.29-2.03-2.6.64-2.32,2.06-3.36,3.08-3.82.73-.33,1.17-1.08,1.16-1.88-.01-2.02-.02-5.86.01-10.38.07-7.72,7.46-8.49,9.8-8.53,0,0,.16-.01.44-.01,1.98,0,10,.5,10.07,8.54.04,4.51.02,8.35.01,10.38,0,.8.43,1.55,1.16,1.88,1.02.46,2.43,1.5,3.08,3.82.36,1.31-.67,2.6-2.03,2.6Z"/>
    <circle class="cls-1" cx="70.44" cy="43.46" r="2.24"/>
  </g>
</svg>